<svg width="118" height="44" viewBox="0 0 118 44" fill="none" xmlns="http://www.w3.org/2000/svg">
<path d="M3.10819 24.8598C-1.33262 13.0202 1.68529 1.68853 16.5143 1.68873C37.9788 1.68902 32.1868 27.1659 18.0063 41.631C17.1616 42.4926 15.8281 42.5411 14.9272 41.743C10.602 37.9112 7.11448 33.294 4.74068 28.5776L20.089 20.9232C20.4439 20.7463 20.8673 20.8054 21.1646 21.0733L25.713 25.1721C26.4175 25.807 27.5008 25.167 27.3248 24.22L26.1512 17.9037C26.0972 17.6133 26.1687 17.3134 26.347 17.0823L30.149 12.154C30.7027 11.4362 30.1192 10.3879 29.2383 10.5176L23.1891 11.4086C22.9055 11.4504 22.6181 11.3624 22.4021 11.1678L17.7036 6.93368C16.9991 6.29886 15.9158 6.93878 16.0918 7.88579L17.2302 14.0125C17.3033 14.406 17.1451 14.8066 16.8264 15.0348L3.10819 24.8598Z" fill="white"/>
<path fill-rule="evenodd" clip-rule="evenodd" d="M1.48434 8.27321C3.80281 3.40268 8.78254 0.418839 16.5143 0.418945C22.1104 0.419022 26.1565 2.08544 28.7125 5.05037C30.159 6.72833 31.0668 8.75127 31.5288 10.9753C31.5457 11.0435 31.5596 11.1125 31.5704 11.1823C31.8867 12.8098 31.9683 14.5414 31.8513 16.3217C31.2884 24.8857 26.1112 35.1463 18.8676 42.5353C17.569 43.86 15.5145 43.9348 14.1292 42.7076C9.68559 38.771 6.09923 34.0257 3.65242 29.1642L3.06768 28.0024L19.5563 19.7794C20.3537 19.3817 21.3035 19.5147 21.9703 20.1157L25.9849 23.7334L24.9462 18.1435C24.8245 17.4885 24.9859 16.8114 25.388 16.2901L28.8023 11.8644L23.362 12.6657C22.7256 12.7595 22.0811 12.5622 21.5963 12.1254L17.4317 8.37242L18.4351 13.7727C18.6001 14.6608 18.2426 15.5647 17.5246 16.079L2.52723 26.8201L1.96431 25.3193C-0.3199 19.2294 -0.781288 13.0327 1.48434 8.27321ZM29.446 15.1003L27.3779 17.7812L28.2267 22.3495C28.8698 20.2092 29.2736 18.118 29.403 16.1494C29.4263 15.7944 29.4407 15.4446 29.446 15.1003ZM26.6289 26.6799C26.0491 26.7581 25.4295 26.6004 24.9072 26.1297L20.4783 22.1386L6.43285 29.1432C8.70593 33.3127 11.8724 37.3652 15.7251 40.7783C16.1417 41.1475 16.7542 41.1252 17.1449 40.7267C21.1587 36.6323 24.4601 31.656 26.6289 26.6799ZM28.4713 9.34801C28.0686 8.37815 27.5396 7.50465 26.8813 6.74098C24.9295 4.47688 21.6503 2.95859 16.5142 2.95852C9.41698 2.95842 5.47326 5.64031 3.68573 9.39546C2.00901 12.9178 2.06748 17.7043 3.72208 22.8759L15.9944 14.0865L14.8868 8.12556C14.4874 5.97565 16.9385 4.56054 18.5093 5.97608L23.1249 10.1355L28.4713 9.34801Z" fill="white"/>
<path d="M39.6851 27.5V5.66325H43.5449V13.8307H43.7048C43.9039 13.4326 44.1846 13.0097 44.5472 12.5619C44.9097 12.1069 45.4002 11.7195 46.0186 11.3997C46.637 11.0727 47.426 10.9092 48.3857 10.9092C49.6509 10.9092 50.7918 11.2326 51.8083 11.8795C52.8319 12.5192 53.6423 13.4682 54.2393 14.7264C54.8436 15.9774 55.1457 17.5128 55.1457 19.3325C55.1457 21.1309 54.8507 22.6592 54.2607 23.9174C53.6707 25.1756 52.8674 26.1352 51.851 26.7963C50.8345 27.4574 49.6829 27.7879 48.3963 27.7879C47.458 27.7879 46.6797 27.6315 46.0612 27.3187C45.4428 27.006 44.9452 26.6292 44.5685 26.1885C44.1989 25.7407 43.911 25.3177 43.7048 24.9197H43.4809V27.5H39.6851ZM43.4702 19.3112C43.4702 20.3704 43.6195 21.298 43.9181 22.0941C44.2237 22.8903 44.6609 23.5122 45.2296 23.9601C45.8053 24.4008 46.5019 24.6211 47.3194 24.6211C48.1724 24.6211 48.8868 24.3937 49.4626 23.9387C50.0383 23.4767 50.4719 22.8476 50.7634 22.0515C51.0619 21.2482 51.2112 20.3348 51.2112 19.3112C51.2112 18.2947 51.0655 17.392 50.774 16.6029C50.4826 15.8139 50.049 15.1955 49.4732 14.7477C48.8974 14.2999 48.1795 14.0759 47.3194 14.0759C46.4948 14.0759 45.7947 14.2927 45.2189 14.7264C44.6431 15.16 44.206 15.7677 43.9074 16.5496C43.616 17.3316 43.4702 18.2521 43.4702 19.3112ZM67.6646 20.612V11.1224H71.5244V27.5H67.7819V24.5891H67.6113C67.2416 25.5061 66.6339 26.256 65.788 26.8389C64.9492 27.4218 63.9149 27.7132 62.6852 27.7132C61.6118 27.7132 60.6629 27.4751 59.8383 26.9989C59.0209 26.5155 58.3811 25.8153 57.9191 24.8984C57.457 23.9743 57.226 22.8583 57.226 21.5503V11.1224H61.0858V20.9532C61.0858 21.9911 61.3702 22.8156 61.9388 23.4269C62.5075 24.0382 63.2539 24.3439 64.178 24.3439C64.7466 24.3439 65.2975 24.2053 65.8306 23.9281C66.3638 23.6508 66.8009 23.2386 67.1421 22.6912C67.4904 22.1368 67.6646 21.4437 67.6646 20.612ZM78.1523 5.66325V27.5H74.2925V5.66325H78.1523ZM84.7802 5.66325V27.5H80.9204V5.66325H84.7802ZM94.7988 27.8199C93.1567 27.8199 91.7386 27.4787 90.5444 26.7963C89.3574 26.1068 88.4439 25.1329 87.8042 23.8748C87.1644 22.6095 86.8446 21.1203 86.8446 19.4072C86.8446 17.7225 87.1644 16.244 87.8042 14.9716C88.451 13.6921 89.3538 12.6969 90.5125 11.9861C91.6711 11.2682 93.0324 10.9092 94.5962 10.9092C95.6056 10.9092 96.5581 11.0727 97.4537 11.3997C98.3565 11.7195 99.1526 12.2171 99.8421 12.8924C100.539 13.5677 101.086 14.4278 101.484 15.4727C101.882 16.5105 102.081 17.7474 102.081 19.1833V20.3668H88.6572V17.7652H98.3814C98.3743 17.0259 98.2143 16.3684 97.9015 15.7926C97.5888 15.2097 97.1516 14.7512 96.5901 14.4171C96.0356 14.0831 95.3888 13.916 94.6495 13.916C93.8605 13.916 93.1674 14.1079 92.5703 14.4918C91.9732 14.8685 91.5076 15.3661 91.1735 15.9845C90.8465 16.5958 90.6795 17.2676 90.6724 17.9997V20.2708C90.6724 21.2234 90.8465 22.0408 91.1949 22.7232C91.5432 23.3985 92.0301 23.9174 92.6556 24.2799C93.2811 24.6353 94.0133 24.8131 94.8521 24.8131C95.4136 24.8131 95.9219 24.7349 96.3768 24.5785C96.8317 24.415 97.2263 24.1769 97.5603 23.8641C97.8944 23.5513 98.1468 23.1639 98.3174 22.7019L101.921 23.1071C101.694 24.0596 101.26 24.8912 100.62 25.6021C99.9878 26.3058 99.1775 26.8531 98.1894 27.2441C97.2014 27.6279 96.0712 27.8199 94.7988 27.8199ZM112.324 11.1224V14.1079H102.909V11.1224H112.324ZM105.233 7.19865H109.093V22.5739C109.093 23.0928 109.171 23.4909 109.328 23.7681C109.491 24.0382 109.704 24.2231 109.967 24.3226C110.23 24.4221 110.522 24.4719 110.842 24.4719C111.083 24.4719 111.304 24.4541 111.503 24.4185C111.709 24.383 111.865 24.351 111.972 24.3226L112.622 27.3401C112.416 27.4111 112.121 27.4893 111.737 27.5746C111.361 27.6599 110.899 27.7097 110.351 27.7239C109.384 27.7523 108.514 27.6066 107.739 27.2868C106.964 26.9598 106.349 26.4551 105.894 25.7727C105.446 25.0903 105.226 24.2373 105.233 23.2137V7.19865Z" fill="white"/>
<path d="M40.4506 41.599C40.0218 41.599 39.6406 41.5348 39.3071 41.4065C38.9735 41.2746 38.706 41.0913 38.5044 40.8568C38.3028 40.6185 38.1818 40.3381 38.1415 40.0156H38.8837C38.9644 40.3125 39.1421 40.5489 39.417 40.7248C39.6919 40.9007 40.0438 40.9887 40.4726 40.9887C40.7621 40.9887 41.0205 40.9429 41.2478 40.8513C41.4787 40.7596 41.6601 40.6332 41.7921 40.4719C41.9277 40.3106 41.9955 40.1274 41.9955 39.9221V39.9111C41.9955 39.6546 41.8984 39.4456 41.7041 39.2844C41.5099 39.1231 41.1965 38.9912 40.764 38.8885L39.9448 38.6961C39.5783 38.6081 39.2741 38.4982 39.0322 38.3662C38.7939 38.2306 38.6162 38.0639 38.4989 37.8659C38.3852 37.6643 38.3284 37.4261 38.3284 37.1512V37.1457C38.3284 36.8268 38.4219 36.5409 38.6088 36.288C38.7994 36.0351 39.056 35.8372 39.3785 35.6943C39.7047 35.5513 40.0658 35.4799 40.4616 35.4799C40.8574 35.4799 41.2111 35.5422 41.5227 35.6668C41.8342 35.7914 42.0853 35.9692 42.2759 36.2001C42.4701 36.431 42.5911 36.7022 42.6387 37.0138H41.924C41.8617 36.7389 41.7004 36.5171 41.4402 36.3485C41.18 36.1763 40.8519 36.0901 40.4561 36.0901C40.1995 36.0901 39.965 36.1341 39.7524 36.2221C39.5435 36.31 39.3767 36.431 39.2521 36.5849C39.1275 36.7389 39.0651 36.9148 39.0651 37.1127V37.1237C39.0651 37.285 39.1055 37.4261 39.1861 37.5471C39.2704 37.6643 39.3969 37.767 39.5655 37.8549C39.7377 37.9392 39.9558 38.0125 40.2197 38.0748L41.0334 38.2728C41.6051 38.4084 42.0321 38.6008 42.3144 38.85C42.5966 39.0956 42.7377 39.431 42.7377 39.8561V39.8671C42.7377 40.208 42.6351 40.5086 42.4298 40.7688C42.2282 41.029 41.9552 41.2324 41.6106 41.379C41.2698 41.5257 40.8831 41.599 40.4506 41.599ZM46.3058 41.599C45.866 41.599 45.4903 41.5128 45.1787 41.3406C44.8672 41.1683 44.6308 40.9191 44.4695 40.5929C44.3083 40.2667 44.2276 39.8781 44.2276 39.4273V35.5788H44.9533V39.2459C44.9533 39.7993 45.0798 40.2227 45.3327 40.5159C45.5893 40.8091 45.9723 40.9557 46.4817 40.9557C46.7566 40.9557 47.0022 40.9117 47.2184 40.8238C47.4384 40.7358 47.6253 40.6112 47.7792 40.4499C47.9332 40.285 48.0486 40.0889 48.1256 39.8616C48.2062 39.6344 48.2465 39.3797 48.2465 39.0974V35.5788H48.9723V41.5H48.2465V40.4664H48.1806C48.0853 40.701 47.9497 40.9044 47.7737 41.0767C47.5978 41.2453 47.3852 41.3754 47.136 41.467C46.8904 41.555 46.6137 41.599 46.3058 41.599ZM50.8305 43.4627V35.5788H51.5562V36.7609H51.6222C51.7395 36.497 51.8953 36.2697 52.0895 36.0791C52.2838 35.8849 52.5092 35.7364 52.7658 35.6338C53.026 35.5312 53.3082 35.4799 53.6124 35.4799C54.1146 35.4799 54.5526 35.6081 54.9264 35.8647C55.3039 36.1176 55.5972 36.4731 55.8061 36.9313C56.015 37.3894 56.1194 37.9227 56.1194 38.5312V38.5422C56.1194 39.1543 56.015 39.6894 55.8061 40.1475C55.5972 40.6057 55.3039 40.963 54.9264 41.2196C54.5526 41.4725 54.1146 41.599 53.6124 41.599C53.3155 41.599 53.0352 41.5476 52.7713 41.445C52.511 41.3387 52.282 41.1921 52.084 41.0052C51.8861 40.8183 51.7322 40.5965 51.6222 40.34H51.5562V43.4627H50.8305ZM53.464 40.9557C53.8562 40.9557 54.1952 40.8568 54.4811 40.6588C54.767 40.4609 54.9869 40.1805 55.1408 39.8177C55.2984 39.4548 55.3772 39.0296 55.3772 38.5422V38.5312C55.3772 38.04 55.2984 37.6149 55.1408 37.2557C54.9869 36.8965 54.767 36.6179 54.4811 36.42C54.1952 36.2221 53.8562 36.1231 53.464 36.1231C53.0718 36.1231 52.7309 36.2239 52.4414 36.4255C52.1555 36.6234 51.9338 36.902 51.7762 37.2612C51.6185 37.6204 51.5397 38.0437 51.5397 38.5312V38.5422C51.5397 39.0296 51.6185 39.4548 51.7762 39.8177C51.9338 40.1769 52.1573 40.4572 52.4469 40.6588C52.7364 40.8568 53.0755 40.9557 53.464 40.9557ZM60.0559 41.599C59.5024 41.599 59.0241 41.4743 58.621 41.2251C58.2215 40.9759 57.9136 40.624 57.6973 40.1695C57.4811 39.715 57.373 39.1781 57.373 38.5587V38.5477C57.373 37.9319 57.4811 37.3949 57.6973 36.9368C57.9136 36.475 58.2178 36.1176 58.61 35.8647C59.0058 35.6081 59.4676 35.4799 59.9954 35.4799C60.5269 35.4799 60.9832 35.6045 61.3644 35.8537C61.7492 36.0993 62.0443 36.4438 62.2495 36.8873C62.4585 37.3271 62.5629 37.8384 62.5629 38.4212V38.7291H57.7468V38.1353H62.1946L61.8372 38.6686V38.3937C61.8372 37.8989 61.7584 37.4847 61.6008 37.1512C61.4469 36.814 61.2306 36.5593 60.952 36.387C60.6772 36.2147 60.3583 36.1286 59.9954 36.1286C59.6289 36.1286 59.3045 36.2166 59.0223 36.3925C58.7401 36.5684 58.5165 36.8268 58.3516 37.1677C58.1903 37.5049 58.1097 37.9136 58.1097 38.3937V38.6686C58.1097 39.1414 58.1903 39.5483 58.3516 39.8891C58.5128 40.23 58.7401 40.4921 59.0333 40.6753C59.3265 40.8586 59.6729 40.9502 60.0724 40.9502C60.3583 40.9502 60.613 40.9099 60.8366 40.8293C61.0638 40.7486 61.2526 40.6423 61.4029 40.5104C61.5531 40.3748 61.6613 40.2318 61.7272 40.0816L61.7437 40.0376H62.4749L62.4585 40.0816C62.3998 40.2831 62.3027 40.4756 62.1671 40.6588C62.0351 40.8384 61.8665 40.9997 61.6613 41.1426C61.456 41.2819 61.2178 41.3937 60.9465 41.478C60.679 41.5586 60.3821 41.599 60.0559 41.599ZM64.1243 41.5V35.5788H64.85V36.5519H64.916C65.0333 36.2147 65.2312 35.9527 65.5098 35.7658C65.7883 35.5752 66.1273 35.4799 66.5269 35.4799C66.6368 35.4799 66.7394 35.4854 66.8347 35.4964C66.93 35.5074 67.0125 35.5202 67.0821 35.5348V36.2441C66.9795 36.2184 66.8769 36.2001 66.7743 36.1891C66.6753 36.1744 66.5672 36.1671 66.4499 36.1671C66.142 36.1671 65.8671 36.2386 65.6252 36.3815C65.387 36.5208 65.1982 36.7132 65.0589 36.9588C64.9197 37.2044 64.85 37.4866 64.85 37.8055V41.5H64.1243ZM68.9954 41.5V36.1836H68.0113V35.5788H68.9954V34.8146C68.9954 34.4481 69.0559 34.1439 69.1768 33.902C69.3014 33.6564 69.481 33.4732 69.7156 33.3522C69.9538 33.2276 70.2434 33.1653 70.5843 33.1653C70.6942 33.1653 70.795 33.1708 70.8866 33.1818C70.9819 33.1891 71.0754 33.2001 71.167 33.2148V33.803C71.1084 33.792 71.0406 33.7847 70.9636 33.781C70.8866 33.7774 70.806 33.7755 70.7217 33.7755C70.3808 33.7755 70.1279 33.8653 69.963 34.0449C69.8017 34.2245 69.7211 34.4884 69.7211 34.8366V35.5788H71.1121V36.1836H69.7211V41.5H68.9954ZM73.9819 41.599C73.6007 41.599 73.2617 41.5293 72.9648 41.39C72.6679 41.2471 72.4334 41.0455 72.2611 40.7853C72.0888 40.525 72.0027 40.219 72.0027 39.8671V39.8561C72.0027 39.5153 72.0852 39.2221 72.2501 38.9765C72.415 38.7273 72.6569 38.533 72.9758 38.3937C73.2947 38.2508 73.6814 38.1646 74.1359 38.1353L76.346 37.9924V38.5806L74.2348 38.7236C73.729 38.7566 73.3533 38.8684 73.1078 39.059C72.8659 39.2459 72.7449 39.5079 72.7449 39.8452V39.8561C72.7449 40.197 72.8732 40.4682 73.1298 40.6698C73.3863 40.8677 73.7162 40.9667 74.1194 40.9667C74.4749 40.9667 74.7919 40.8934 75.0705 40.7468C75.3527 40.5965 75.5763 40.3949 75.7412 40.142C75.9062 39.8891 75.9886 39.6069 75.9886 39.2954V37.4591C75.9886 37.0229 75.8604 36.6912 75.6038 36.464C75.3472 36.2367 74.9789 36.1231 74.4987 36.1231C74.0955 36.1231 73.7602 36.2019 73.4926 36.3595C73.2251 36.5171 73.051 36.7444 72.9703 37.0413L72.9648 37.0522H72.2391L72.2446 37.0303C72.2959 36.7114 72.4242 36.4365 72.6295 36.2056C72.8347 35.9747 73.0986 35.7969 73.4211 35.6723C73.7437 35.544 74.1102 35.4799 74.5207 35.4799C74.9862 35.4799 75.382 35.5587 75.7082 35.7163C76.0345 35.8702 76.2819 36.0938 76.4505 36.387C76.6227 36.6802 76.7089 37.0358 76.7089 37.4536V41.5H75.9886V40.4774H75.9172C75.7999 40.712 75.6459 40.9136 75.4553 41.0822C75.2648 41.2471 75.0448 41.3754 74.7956 41.467C74.5464 41.555 74.2751 41.599 73.9819 41.599ZM80.5299 41.599C80.101 41.599 79.7198 41.5348 79.3863 41.4065C79.0528 41.2746 78.7852 41.0913 78.5836 40.8568C78.382 40.6185 78.2611 40.3381 78.2208 40.0156H78.963C79.0436 40.3125 79.2214 40.5489 79.4963 40.7248C79.7712 40.9007 80.123 40.9887 80.5518 40.9887C80.8414 40.9887 81.0998 40.9429 81.327 40.8513C81.5579 40.7596 81.7394 40.6332 81.8713 40.4719C82.0069 40.3106 82.0747 40.1274 82.0747 39.9221V39.9111C82.0747 39.6546 81.9776 39.4456 81.7834 39.2844C81.5891 39.1231 81.2757 38.9912 80.8432 38.8885L80.0241 38.6961C79.6575 38.6081 79.3533 38.4982 79.1114 38.3662C78.8732 38.2306 78.6954 38.0639 78.5781 37.8659C78.4645 37.6643 78.4077 37.4261 78.4077 37.1512V37.1457C78.4077 36.8268 78.5012 36.5409 78.6881 36.288C78.8787 36.0351 79.1352 35.8372 79.4578 35.6943C79.784 35.5513 80.145 35.4799 80.5408 35.4799C80.9367 35.4799 81.2904 35.5422 81.6019 35.6668C81.9135 35.7914 82.1645 35.9692 82.3551 36.2001C82.5494 36.431 82.6703 36.7022 82.718 37.0138H82.0033C81.941 36.7389 81.7797 36.5171 81.5195 36.3485C81.2592 36.1763 80.9312 36.0901 80.5354 36.0901C80.2788 36.0901 80.0442 36.1341 79.8316 36.2221C79.6227 36.31 79.4559 36.431 79.3313 36.5849C79.2067 36.7389 79.1444 36.9148 79.1444 37.1127V37.1237C79.1444 37.285 79.1847 37.4261 79.2654 37.5471C79.3497 37.6643 79.4761 37.767 79.6447 37.8549C79.817 37.9392 80.035 38.0125 80.2989 38.0748L81.1126 38.2728C81.6844 38.4084 82.1114 38.6008 82.3936 38.85C82.6758 39.0956 82.817 39.431 82.817 39.8561V39.8671C82.817 40.208 82.7143 40.5086 82.5091 40.7688C82.3075 41.029 82.0344 41.2324 81.6899 41.379C81.349 41.5257 80.9623 41.599 80.5299 41.599ZM86.2751 41.5385C85.7143 41.5385 85.3075 41.4212 85.0546 41.1866C84.8053 40.952 84.6807 40.5654 84.6807 40.0266V36.1836H83.7296V35.5788H84.6807V34.0394H85.4284V35.5788H86.7864V36.1836H85.4284V39.8616C85.4284 40.2282 85.4999 40.4921 85.6428 40.6533C85.7858 40.8146 86.024 40.8952 86.3576 40.8952C86.4419 40.8952 86.5152 40.8934 86.5775 40.8897C86.6398 40.8861 86.7094 40.8806 86.7864 40.8732V41.4945C86.7021 41.5055 86.6178 41.5147 86.5335 41.522C86.4529 41.533 86.3667 41.5385 86.2751 41.5385ZM92.988 41.5L90.7778 35.5788H91.5475L93.3398 40.7193H93.4058L95.1981 35.5788H95.9623L93.7522 41.5H92.988ZM97.2983 41.5V35.5788H98.024V41.5H97.2983ZM97.6611 34.3473C97.5182 34.3473 97.3936 34.296 97.2873 34.1934C97.181 34.0871 97.1278 33.9606 97.1278 33.814C97.1278 33.6674 97.181 33.5428 97.2873 33.4402C97.3936 33.3339 97.5182 33.2807 97.6611 33.2807C97.8114 33.2807 97.9378 33.3339 98.0405 33.4402C98.1431 33.5428 98.1944 33.6674 98.1944 33.814C98.1944 33.9606 98.1431 34.0871 98.0405 34.1934C97.9378 34.296 97.8114 34.3473 97.6611 34.3473ZM101.905 41.599C101.477 41.599 101.095 41.5348 100.762 41.4065C100.428 41.2746 100.161 41.0913 99.9592 40.8568C99.7576 40.6185 99.6367 40.3381 99.5964 40.0156H100.339C100.419 40.3125 100.597 40.5489 100.872 40.7248C101.147 40.9007 101.499 40.9887 101.927 40.9887C102.217 40.9887 102.475 40.9429 102.703 40.8513C102.934 40.7596 103.115 40.6332 103.247 40.4719C103.383 40.3106 103.45 40.1274 103.45 39.9221V39.9111C103.45 39.6546 103.353 39.4456 103.159 39.2844C102.965 39.1231 102.651 38.9912 102.219 38.8885L101.4 38.6961C101.033 38.6081 100.729 38.4982 100.487 38.3662C100.249 38.2306 100.071 38.0639 99.9537 37.8659C99.8401 37.6643 99.7833 37.4261 99.7833 37.1512V37.1457C99.7833 36.8268 99.8768 36.5409 100.064 36.288C100.254 36.0351 100.511 35.8372 100.833 35.6943C101.16 35.5513 101.521 35.4799 101.916 35.4799C102.312 35.4799 102.666 35.5422 102.978 35.6668C103.289 35.7914 103.54 35.9692 103.731 36.2001C103.925 36.431 104.046 36.7022 104.094 37.0138H103.379C103.317 36.7389 103.155 36.5171 102.895 36.3485C102.635 36.1763 102.307 36.0901 101.911 36.0901C101.654 36.0901 101.42 36.1341 101.207 36.2221C100.998 36.31 100.832 36.431 100.707 36.5849C100.582 36.7389 100.52 36.9148 100.52 37.1127V37.1237C100.52 37.285 100.56 37.4261 100.641 37.5471C100.725 37.6643 100.852 37.767 101.02 37.8549C101.193 37.9392 101.411 38.0125 101.675 38.0748L102.488 38.2728C103.06 38.4084 103.487 38.6008 103.769 38.85C104.051 39.0956 104.193 39.431 104.193 39.8561V39.8671C104.193 40.208 104.09 40.5086 103.885 40.7688C103.683 41.029 103.41 41.2324 103.066 41.379C102.725 41.5257 102.338 41.599 101.905 41.599ZM107.365 41.599C106.984 41.599 106.645 41.5293 106.348 41.39C106.051 41.2471 105.816 41.0455 105.644 40.7853C105.472 40.525 105.386 40.219 105.386 39.8671V39.8561C105.386 39.5153 105.468 39.2221 105.633 38.9765C105.798 38.7273 106.04 38.533 106.359 38.3937C106.678 38.2508 107.064 38.1646 107.519 38.1353L109.729 37.9924V38.5806L107.618 38.7236C107.112 38.7566 106.736 38.8684 106.491 39.059C106.249 39.2459 106.128 39.5079 106.128 39.8452V39.8561C106.128 40.197 106.256 40.4682 106.513 40.6698C106.769 40.8677 107.099 40.9667 107.502 40.9667C107.858 40.9667 108.175 40.8934 108.453 40.7468C108.736 40.5965 108.959 40.3949 109.124 40.142C109.289 39.8891 109.372 39.6069 109.372 39.2954V37.4591C109.372 37.0229 109.243 36.6912 108.987 36.464C108.73 36.2367 108.362 36.1231 107.882 36.1231C107.478 36.1231 107.143 36.2019 106.876 36.3595C106.608 36.5171 106.434 36.7444 106.353 37.0413L106.348 37.0522H105.622L105.627 37.0303C105.679 36.7114 105.807 36.4365 106.012 36.2056C106.218 35.9747 106.481 35.7969 106.804 35.6723C107.127 35.544 107.493 35.4799 107.904 35.4799C108.369 35.4799 108.765 35.5587 109.091 35.7163C109.417 35.8702 109.665 36.0938 109.833 36.387C110.006 36.6802 110.092 37.0358 110.092 37.4536V41.5H109.372V40.4774H109.3C109.183 40.712 109.029 40.9136 108.838 41.0822C108.648 41.2471 108.428 41.3754 108.178 41.467C107.929 41.555 107.658 41.599 107.365 41.599ZM113.913 41.599C113.484 41.599 113.103 41.5348 112.769 41.4065C112.436 41.2746 112.168 41.0913 111.967 40.8568C111.765 40.6185 111.644 40.3381 111.604 40.0156H112.346C112.426 40.3125 112.604 40.5489 112.879 40.7248C113.154 40.9007 113.506 40.9887 113.935 40.9887C114.224 40.9887 114.483 40.9429 114.71 40.8513C114.941 40.7596 115.122 40.6332 115.254 40.4719C115.39 40.3106 115.458 40.1274 115.458 39.9221V39.9111C115.458 39.6546 115.361 39.4456 115.166 39.2844C114.972 39.1231 114.659 38.9912 114.226 38.8885L113.407 38.6961C113.04 38.6081 112.736 38.4982 112.494 38.3662C112.256 38.2306 112.078 38.0639 111.961 37.8659C111.847 37.6643 111.791 37.4261 111.791 37.1512V37.1457C111.791 36.8268 111.884 36.5409 112.071 36.288C112.262 36.0351 112.518 35.8372 112.841 35.6943C113.167 35.5513 113.528 35.4799 113.924 35.4799C114.32 35.4799 114.673 35.5422 114.985 35.6668C115.296 35.7914 115.547 35.9692 115.738 36.2001C115.932 36.431 116.053 36.7022 116.101 37.0138H115.386C115.324 36.7389 115.163 36.5171 114.902 36.3485C114.642 36.1763 114.314 36.0901 113.918 36.0901C113.662 36.0901 113.427 36.1341 113.215 36.2221C113.006 36.31 112.839 36.431 112.714 36.5849C112.59 36.7389 112.527 36.9148 112.527 37.1127V37.1237C112.527 37.285 112.568 37.4261 112.648 37.5471C112.733 37.6643 112.859 37.767 113.028 37.8549C113.2 37.9392 113.418 38.0125 113.682 38.0748L114.496 38.2728C115.067 38.4084 115.494 38.6008 115.777 38.85C116.059 39.0956 116.2 39.431 116.2 39.8561V39.8671C116.2 40.208 116.097 40.5086 115.892 40.7688C115.69 41.029 115.417 41.2324 115.073 41.379C114.732 41.5257 114.345 41.599 113.913 41.599Z" fill="white"/>
</svg>
