<svg width="59" height="23" viewBox="0 0 59 23" fill="none" xmlns="http://www.w3.org/2000/svg">
<path d="M1.5541 12.9298C-0.666309 7.01 0.842643 1.34417 8.25714 1.34427C18.9894 1.34442 16.0934 14.0828 9.00313 21.3154C8.5808 21.7462 7.91406 21.7705 7.46357 21.3714C5.30098 19.4555 3.55724 17.1469 2.37034 14.7887L10.0445 10.9615C10.2219 10.8731 10.4336 10.9026 10.5823 11.0366L12.8565 13.086C13.2087 13.4034 13.7504 13.0834 13.6624 12.6099L13.0756 9.45176C13.0486 9.30657 13.0844 9.15659 13.1735 9.04107L15.0745 6.57689C15.3514 6.21802 15.0596 5.69384 14.6191 5.75872L11.5945 6.20422C11.4527 6.2251 11.309 6.18113 11.201 6.08381L8.85178 3.96675C8.49956 3.64934 7.95791 3.9693 8.0459 4.4428L8.6151 7.50615C8.65165 7.70291 8.57255 7.9032 8.41321 8.01733L1.5541 12.9298Z" fill="#1D4ED8"/>
<path fill-rule="evenodd" clip-rule="evenodd" d="M0.742169 4.63651C1.9014 2.20125 4.39127 0.709328 8.25714 0.709381C11.0552 0.70942 13.0783 1.54263 14.3562 3.02509C15.0795 3.86407 15.5334 4.87554 15.7644 5.98754C15.7729 6.02164 15.7798 6.05618 15.7852 6.09105C15.9433 6.90481 15.9842 7.77063 15.9257 8.66077C15.6442 12.9428 13.0556 18.0731 9.43379 21.7676C8.78449 22.4299 7.75723 22.4673 7.06459 21.8537C4.8428 19.8854 3.04962 17.5127 1.82621 15.082L1.53384 14.5011L9.77817 10.3896C10.1769 10.1908 10.6517 10.2573 10.9852 10.5577L12.9924 12.3666L12.4731 9.57164C12.4122 9.24414 12.4929 8.90561 12.694 8.64495L14.4011 6.43212L11.681 6.83277C11.3628 6.87964 11.0405 6.78103 10.7981 6.56261L8.71583 4.68612L9.21755 7.38627C9.30006 7.83033 9.12132 8.28228 8.76232 8.53939L1.26362 13.9099L0.982156 13.1595C-0.15995 10.1146 -0.390644 7.01627 0.742169 4.63651ZM14.723 8.05008L13.6889 9.3905L14.1133 11.6746C14.4349 10.6045 14.6368 9.5589 14.7015 8.5746C14.7132 8.39711 14.7203 8.22223 14.723 8.05008ZM13.3145 13.8399C13.0246 13.879 12.7148 13.8001 12.4536 13.5648L10.2392 11.5692L3.21642 15.0715C4.35297 17.1563 5.93619 19.1825 7.86253 20.8891C8.07087 21.0736 8.37708 21.0625 8.57244 20.8633C10.5793 18.8161 12.23 16.3279 13.3145 13.8399ZM14.2357 5.17391C14.0343 4.68898 13.7698 4.25223 13.4406 3.8704C12.4647 2.73835 10.8252 1.9792 8.25712 1.97917C4.70849 1.97912 2.73663 3.32006 1.84287 5.19764C1.0045 6.95883 1.03374 9.35205 1.86104 11.9379L7.99721 7.54314L7.44342 4.56269C7.24368 3.48773 8.46926 2.78018 9.25466 3.48795L11.5625 5.56765L14.2357 5.17391Z" fill="#1D4ED8"/>
<path d="M19.8425 14V3.08163H21.7724V7.16535H21.8524C21.9519 6.96632 22.0923 6.75485 22.2736 6.53094C22.4548 6.30347 22.7001 6.10977 23.0093 5.94983C23.3185 5.78634 23.713 5.70459 24.1928 5.70459C24.8255 5.70459 25.3959 5.86631 25.9042 6.18974C26.416 6.50961 26.8211 6.98409 27.1197 7.61318C27.4218 8.23871 27.5728 9.00641 27.5728 9.91627C27.5728 10.8155 27.4253 11.5796 27.1303 12.2087C26.8353 12.8378 26.4337 13.3176 25.9255 13.6481C25.4172 13.9787 24.8415 14.1439 24.1982 14.1439C23.729 14.1439 23.3398 14.0658 23.0306 13.9094C22.7214 13.753 22.4726 13.5646 22.2842 13.3443C22.0994 13.1203 21.9555 12.9089 21.8524 12.7098H21.7405V14H19.8425ZM21.7351 9.90561C21.7351 10.4352 21.8098 10.899 21.959 11.2971C22.1119 11.6951 22.3304 12.0061 22.6148 12.23C22.9027 12.4504 23.251 12.5606 23.6597 12.5606C24.0862 12.5606 24.4434 12.4468 24.7313 12.2194C25.0192 11.9883 25.236 11.6738 25.3817 11.2757C25.531 10.8741 25.6056 10.4174 25.6056 9.90561C25.6056 9.39736 25.5327 8.94599 25.387 8.55147C25.2413 8.15696 25.0245 7.84775 24.7366 7.62384C24.4487 7.39993 24.0898 7.28797 23.6597 7.28797C23.2474 7.28797 22.8973 7.39637 22.6094 7.61318C22.3216 7.82998 22.103 8.13386 21.9537 8.52482C21.808 8.91578 21.7351 9.37604 21.7351 9.90561ZM33.8323 10.556V5.81122H35.7622V14H33.8909V12.5446H33.8056C33.6208 13.0031 33.3169 13.378 32.894 13.6695C32.4746 13.9609 31.9575 14.1066 31.3426 14.1066C30.8059 14.1066 30.3314 13.9876 29.9192 13.7494C29.5104 13.5077 29.1906 13.1577 28.9595 12.6992C28.7285 12.2371 28.613 11.6791 28.613 11.0252V5.81122H30.5429V10.7266C30.5429 11.2455 30.6851 11.6578 30.9694 11.9635C31.2537 12.2691 31.6269 12.422 32.089 12.422C32.3733 12.422 32.6488 12.3526 32.9153 12.214C33.1819 12.0754 33.4005 11.8693 33.5711 11.5956C33.7452 11.3184 33.8323 10.9719 33.8323 10.556ZM39.0761 3.08163V14H37.1462V3.08163H39.0761ZM42.3901 3.08163V14H40.4602V3.08163H42.3901ZM47.3994 14.1599C46.5784 14.1599 45.8693 13.9893 45.2722 13.6481C44.6787 13.3034 44.222 12.8165 43.9021 12.1874C43.5822 11.5547 43.4223 10.8101 43.4223 9.95359C43.4223 9.11126 43.5822 8.37199 43.9021 7.7358C44.2255 7.09605 44.6769 6.59846 45.2562 6.24305C45.8356 5.88408 46.5162 5.70459 47.2981 5.70459C47.8028 5.70459 48.279 5.78634 48.7269 5.94983C49.1782 6.10977 49.5763 6.35856 49.9211 6.6962C50.2694 7.03385 50.543 7.4639 50.7421 7.98636C50.9411 8.50527 51.0406 9.12369 51.0406 9.84163V10.4334H44.3286V9.13258H49.1907C49.1871 8.76295 49.1072 8.43419 48.9508 8.1463C48.7944 7.85486 48.5758 7.62562 48.295 7.45857C48.0178 7.29153 47.6944 7.208 47.3247 7.208C46.9302 7.208 46.5837 7.30397 46.2852 7.49589C45.9866 7.68426 45.7538 7.93305 45.5868 8.24226C45.4233 8.54792 45.3397 8.88379 45.3362 9.24987V10.3854C45.3362 10.8617 45.4233 11.2704 45.5974 11.6116C45.7716 11.9493 46.015 12.2087 46.3278 12.39C46.6406 12.5677 47.0066 12.6565 47.426 12.6565C47.7068 12.6565 47.9609 12.6174 48.1884 12.5392C48.4159 12.4575 48.6131 12.3384 48.7802 12.182C48.9472 12.0257 49.0734 11.832 49.1587 11.6009L50.9606 11.8035C50.8469 12.2798 50.6301 12.6956 50.3102 13.051C49.9939 13.4029 49.5887 13.6766 49.0947 13.8721C48.6007 14.064 48.0356 14.1599 47.3994 14.1599ZM56.1619 5.81122V7.30397H51.4544V5.81122H56.1619ZM52.6166 3.84932H54.5465V11.537C54.5465 11.7964 54.5856 11.9955 54.6638 12.1341C54.7455 12.2691 54.8522 12.3615 54.9837 12.4113C55.1152 12.461 55.2609 12.4859 55.4208 12.4859C55.5417 12.4859 55.6518 12.477 55.7514 12.4593C55.8544 12.4415 55.9326 12.4255 55.9859 12.4113L56.3111 13.92C56.2081 13.9556 56.0606 13.9947 55.8686 14.0373C55.6803 14.08 55.4492 14.1048 55.1756 14.112C54.6922 14.1262 54.2568 14.0533 53.8694 13.8934C53.482 13.7299 53.1746 13.4775 52.9471 13.1363C52.7232 12.7951 52.613 12.3686 52.6166 11.8568V3.84932Z" fill="#1D4ED8"/>
<path d="M20.2253 21.0495C20.0109 21.0495 19.8203 21.0174 19.6535 20.9533C19.4868 20.8873 19.353 20.7957 19.2522 20.6784C19.1514 20.5593 19.0909 20.4191 19.0708 20.2578H19.4419C19.4822 20.4062 19.5711 20.5244 19.7085 20.6124C19.846 20.7004 20.0219 20.7444 20.2363 20.7444C20.3811 20.7444 20.5103 20.7214 20.6239 20.6756C20.7393 20.6298 20.8301 20.5666 20.896 20.486C20.9638 20.4053 20.9977 20.3137 20.9977 20.2111V20.2056C20.9977 20.0773 20.9492 19.9728 20.8521 19.8922C20.7549 19.8116 20.5982 19.7456 20.382 19.6943L19.9724 19.5981C19.7891 19.5541 19.637 19.4991 19.5161 19.4331C19.397 19.3653 19.3081 19.2819 19.2494 19.183C19.1926 19.0822 19.1642 18.9631 19.1642 18.8256V18.8229C19.1642 18.6634 19.2109 18.5205 19.3044 18.394C19.3997 18.2676 19.528 18.1686 19.6893 18.0971C19.8524 18.0257 20.0329 17.9899 20.2308 17.9899C20.4287 17.9899 20.6056 18.0211 20.7613 18.0834C20.9171 18.1457 21.0426 18.2346 21.1379 18.35C21.2351 18.4655 21.2955 18.6011 21.3194 18.7569H20.962C20.9309 18.6194 20.8502 18.5086 20.7201 18.4243C20.59 18.3381 20.426 18.2951 20.2281 18.2951C20.0998 18.2951 19.9825 18.3171 19.8762 18.361C19.7717 18.405 19.6883 18.4655 19.626 18.5425C19.5637 18.6194 19.5326 18.7074 19.5326 18.8064V18.8119C19.5326 18.8925 19.5527 18.9631 19.593 19.0235C19.6352 19.0822 19.6984 19.1335 19.7827 19.1775C19.8689 19.2196 19.9779 19.2563 20.1098 19.2874L20.5167 19.3864C20.8026 19.4542 21.0161 19.5504 21.1572 19.675C21.2983 19.7978 21.3689 19.9655 21.3689 20.1781V20.1836C21.3689 20.354 21.3175 20.5043 21.2149 20.6344C21.1141 20.7645 20.9776 20.8662 20.8053 20.9395C20.6349 21.0128 20.4415 21.0495 20.2253 21.0495ZM23.1529 21.0495C22.933 21.0495 22.7451 21.0064 22.5894 20.9203C22.4336 20.8341 22.3154 20.7095 22.2348 20.5464C22.1541 20.3833 22.1138 20.1891 22.1138 19.9637V18.0394H22.4767V19.8729C22.4767 20.1497 22.5399 20.3613 22.6663 20.5079C22.7946 20.6546 22.9861 20.7279 23.2409 20.7279C23.3783 20.7279 23.5011 20.7059 23.6092 20.6619C23.7192 20.6179 23.8126 20.5556 23.8896 20.475C23.9666 20.3925 24.0243 20.2944 24.0628 20.1808C24.1031 20.0672 24.1233 19.9398 24.1233 19.7987V18.0394H24.4861V21H24.1233V20.4832H24.0903C24.0426 20.6005 23.9748 20.7022 23.8869 20.7883C23.7989 20.8726 23.6926 20.9377 23.568 20.9835C23.4452 21.0275 23.3068 21.0495 23.1529 21.0495ZM25.4153 21.9814V18.0394H25.7781V18.6304H25.8111C25.8697 18.4985 25.9476 18.3849 26.0448 18.2896C26.1419 18.1924 26.2546 18.1182 26.3829 18.0669C26.513 18.0156 26.6541 17.9899 26.8062 17.9899C27.0573 17.9899 27.2763 18.0541 27.4632 18.1824C27.652 18.3088 27.7986 18.4866 27.903 18.7156C28.0075 18.9447 28.0597 19.2114 28.0597 19.5156V19.5211C28.0597 19.8271 28.0075 20.0947 27.903 20.3238C27.7986 20.5528 27.652 20.7315 27.4632 20.8598C27.2763 20.9863 27.0573 21.0495 26.8062 21.0495C26.6578 21.0495 26.5176 21.0238 26.3856 20.9725C26.2555 20.9194 26.141 20.8461 26.042 20.7526C25.9431 20.6591 25.8661 20.5483 25.8111 20.42H25.7781V21.9814H25.4153ZM26.732 20.7279C26.9281 20.7279 27.0976 20.6784 27.2405 20.5794C27.3835 20.4805 27.4934 20.3403 27.5704 20.1588C27.6492 19.9774 27.6886 19.7648 27.6886 19.5211V19.5156C27.6886 19.27 27.6492 19.0574 27.5704 18.8778C27.4934 18.6982 27.3835 18.559 27.2405 18.46C27.0976 18.361 26.9281 18.3116 26.732 18.3116C26.5359 18.3116 26.3655 18.362 26.2207 18.4627C26.0778 18.5617 25.9669 18.701 25.8881 18.8806C25.8093 19.0602 25.7699 19.2718 25.7699 19.5156V19.5211C25.7699 19.7648 25.8093 19.9774 25.8881 20.1588C25.9669 20.3384 26.0787 20.4786 26.2234 20.5794C26.3682 20.6784 26.5377 20.7279 26.732 20.7279ZM30.0279 21.0495C29.7512 21.0495 29.5121 20.9872 29.3105 20.8626C29.1107 20.7379 28.9568 20.562 28.8487 20.3348C28.7405 20.1075 28.6865 19.839 28.6865 19.5293V19.5238C28.6865 19.216 28.7405 18.9475 28.8487 18.7184C28.9568 18.4875 29.1089 18.3088 29.305 18.1824C29.5029 18.0541 29.7338 17.9899 29.9977 17.9899C30.2634 17.9899 30.4916 18.0522 30.6822 18.1769C30.8746 18.2996 31.0221 18.4719 31.1248 18.6937C31.2292 18.9136 31.2815 19.1692 31.2815 19.4606V19.6145H28.8734V19.3177H31.0973L30.9186 19.5843V19.4469C30.9186 19.1995 30.8792 18.9924 30.8004 18.8256C30.7234 18.657 30.6153 18.5296 30.476 18.4435C30.3386 18.3574 30.1791 18.3143 29.9977 18.3143C29.8144 18.3143 29.6523 18.3583 29.5112 18.4463C29.37 18.5342 29.2583 18.6634 29.1758 18.8339C29.0951 19.0025 29.0548 19.2068 29.0548 19.4469V19.5843C29.0548 19.8207 29.0951 20.0241 29.1758 20.1946C29.2564 20.365 29.37 20.496 29.5166 20.5877C29.6633 20.6793 29.8364 20.7251 30.0362 20.7251C30.1791 20.7251 30.3065 20.7049 30.4183 20.6646C30.5319 20.6243 30.6263 20.5712 30.7014 20.5052C30.7766 20.4374 30.8306 20.3659 30.8636 20.2908L30.8719 20.2688H31.2375L31.2292 20.2908C31.1999 20.3916 31.1513 20.4878 31.0835 20.5794C31.0176 20.6692 30.9333 20.7498 30.8306 20.8213C30.728 20.891 30.6089 20.9469 30.4733 20.989C30.3395 21.0293 30.1911 21.0495 30.0279 21.0495ZM32.0621 21V18.0394H32.425V18.526H32.458C32.5166 18.3574 32.6156 18.2263 32.7549 18.1329C32.8942 18.0376 33.0637 17.9899 33.2634 17.9899C33.3184 17.9899 33.3697 17.9927 33.4174 17.9982C33.465 18.0037 33.5062 18.0101 33.5411 18.0174V18.372C33.4898 18.3592 33.4384 18.35 33.3871 18.3445C33.3376 18.3372 33.2836 18.3335 33.2249 18.3335C33.071 18.3335 32.9336 18.3693 32.8126 18.4408C32.6935 18.5104 32.5991 18.6066 32.5295 18.7294C32.4598 18.8522 32.425 18.9933 32.425 19.1527V21H32.0621ZM34.4977 21V18.3418H34.0056V18.0394H34.4977V17.6573C34.4977 17.4741 34.5279 17.3219 34.5884 17.201C34.6507 17.0782 34.7405 16.9866 34.8578 16.9261C34.9769 16.8638 35.1217 16.8326 35.2921 16.8326C35.3471 16.8326 35.3975 16.8354 35.4433 16.8409C35.491 16.8445 35.5377 16.85 35.5835 16.8574V17.1515C35.5542 17.146 35.5203 17.1423 35.4818 17.1405C35.4433 17.1387 35.403 17.1378 35.3609 17.1378C35.1904 17.1378 35.064 17.1827 34.9815 17.2725C34.9009 17.3623 34.8605 17.4942 34.8605 17.6683V18.0394H35.556V18.3418H34.8605V21H34.4977ZM36.991 21.0495C36.8004 21.0495 36.6309 21.0147 36.4824 20.945C36.334 20.8735 36.2167 20.7728 36.1305 20.6426C36.0444 20.5125 36.0014 20.3595 36.0014 20.1836V20.1781C36.0014 20.0076 36.0426 19.861 36.1251 19.7382C36.2075 19.6136 36.3285 19.5165 36.4879 19.4469C36.6473 19.3754 36.8407 19.3323 37.0679 19.3177L38.173 19.2462V19.5403L37.1174 19.6118C36.8645 19.6283 36.6767 19.6842 36.5539 19.7795C36.4329 19.8729 36.3725 20.004 36.3725 20.1726V20.1781C36.3725 20.3485 36.4366 20.4841 36.5649 20.5849C36.6932 20.6839 36.8581 20.7334 37.0597 20.7334C37.2374 20.7334 37.396 20.6967 37.5352 20.6234C37.6764 20.5483 37.7881 20.4475 37.8706 20.321C37.9531 20.1946 37.9943 20.0535 37.9943 19.8977V18.9795C37.9943 18.7615 37.9302 18.5956 37.8019 18.482C37.6736 18.3684 37.4894 18.3116 37.2494 18.3116C37.0478 18.3116 36.8801 18.351 36.7463 18.4298C36.6125 18.5086 36.5255 18.6222 36.4852 18.7706L36.4824 18.7761H36.1196L36.1223 18.7651C36.148 18.6057 36.2121 18.4682 36.3147 18.3528C36.4174 18.2373 36.5493 18.1485 36.7106 18.0861C36.8718 18.022 37.0551 17.9899 37.2604 17.9899C37.4931 17.9899 37.691 18.0293 37.8541 18.1081C38.0172 18.1851 38.1409 18.2969 38.2252 18.4435C38.3114 18.5901 38.3544 18.7679 38.3544 18.9768V21H37.9943V20.4887H37.9586C37.8999 20.606 37.823 20.7068 37.7277 20.7911C37.6324 20.8735 37.5224 20.9377 37.3978 20.9835C37.2732 21.0275 37.1376 21.0495 36.991 21.0495ZM40.2649 21.0495C40.0505 21.0495 39.8599 21.0174 39.6931 20.9533C39.5264 20.8873 39.3926 20.7957 39.2918 20.6784C39.191 20.5593 39.1305 20.4191 39.1104 20.2578H39.4815C39.5218 20.4062 39.6107 20.5244 39.7481 20.6124C39.8856 20.7004 40.0615 20.7444 40.2759 20.7444C40.4207 20.7444 40.5499 20.7214 40.6635 20.6756C40.779 20.6298 40.8697 20.5666 40.9357 20.486C41.0035 20.4053 41.0374 20.3137 41.0374 20.2111V20.2056C41.0374 20.0773 40.9888 19.9728 40.8917 19.8922C40.7945 19.8116 40.6379 19.7456 40.4216 19.6943L40.012 19.5981C39.8288 19.5541 39.6767 19.4991 39.5557 19.4331C39.4366 19.3653 39.3477 19.2819 39.2891 19.183C39.2322 19.0822 39.2038 18.9631 39.2038 18.8256V18.8229C39.2038 18.6634 39.2506 18.5205 39.344 18.394C39.4393 18.2676 39.5676 18.1686 39.7289 18.0971C39.892 18.0257 40.0725 17.9899 40.2704 17.9899C40.4683 17.9899 40.6452 18.0211 40.801 18.0834C40.9567 18.1457 41.0823 18.2346 41.1776 18.35C41.2747 18.4655 41.3352 18.6011 41.359 18.7569H41.0016C40.9705 18.6194 40.8898 18.5086 40.7597 18.4243C40.6296 18.3381 40.4656 18.2951 40.2677 18.2951C40.1394 18.2951 40.0221 18.3171 39.9158 18.361C39.8114 18.405 39.728 18.4655 39.6657 18.5425C39.6034 18.6194 39.5722 18.7074 39.5722 18.8064V18.8119C39.5722 18.8925 39.5924 18.9631 39.6327 19.0235C39.6748 19.0822 39.738 19.1335 39.8223 19.1775C39.9085 19.2196 40.0175 19.2563 40.1495 19.2874L40.5563 19.3864C40.8422 19.4542 41.0557 19.5504 41.1968 19.675C41.3379 19.7978 41.4085 19.9655 41.4085 20.1781V20.1836C41.4085 20.354 41.3572 20.5043 41.2545 20.6344C41.1537 20.7645 41.0172 20.8662 40.8449 20.9395C40.6745 21.0128 40.4812 21.0495 40.2649 21.0495ZM43.1375 21.0192C42.8572 21.0192 42.6537 20.9606 42.5273 20.8433C42.4027 20.726 42.3404 20.5327 42.3404 20.2633V18.3418H41.8648V18.0394H42.3404V17.2697H42.7142V18.0394H43.3932V18.3418H42.7142V20.1808C42.7142 20.3641 42.7499 20.496 42.8214 20.5767C42.8929 20.6573 43.012 20.6976 43.1788 20.6976C43.2209 20.6976 43.2576 20.6967 43.2887 20.6949C43.3199 20.693 43.3547 20.6903 43.3932 20.6866V20.9973C43.351 21.0027 43.3089 21.0073 43.2667 21.011C43.2264 21.0165 43.1834 21.0192 43.1375 21.0192ZM46.494 21L45.3889 18.0394H45.7738L46.6699 20.6097H46.7029L47.599 18.0394H47.9811L46.8761 21H46.494ZM48.6491 21V18.0394H49.012V21H48.6491ZM48.8306 17.4237C48.7591 17.4237 48.6968 17.398 48.6436 17.3467C48.5905 17.2935 48.5639 17.2303 48.5639 17.157C48.5639 17.0837 48.5905 17.0214 48.6436 16.9701C48.6968 16.9169 48.7591 16.8904 48.8306 16.8904C48.9057 16.8904 48.9689 16.9169 49.0202 16.9701C49.0715 17.0214 49.0972 17.0837 49.0972 17.157C49.0972 17.2303 49.0715 17.2935 49.0202 17.3467C48.9689 17.398 48.9057 17.4237 48.8306 17.4237ZM50.9527 21.0495C50.7383 21.0495 50.5477 21.0174 50.381 20.9533C50.2142 20.8873 50.0804 20.7957 49.9796 20.6784C49.8788 20.5593 49.8183 20.4191 49.7982 20.2578H50.1693C50.2096 20.4062 50.2985 20.5244 50.4359 20.6124C50.5734 20.7004 50.7493 20.7444 50.9637 20.7444C51.1085 20.7444 51.2377 20.7214 51.3513 20.6756C51.4668 20.6298 51.5575 20.5666 51.6235 20.486C51.6913 20.4053 51.7252 20.3137 51.7252 20.2111V20.2056C51.7252 20.0773 51.6766 19.9728 51.5795 19.8922C51.4824 19.8116 51.3257 19.7456 51.1094 19.6943L50.6998 19.5981C50.5166 19.5541 50.3645 19.4991 50.2435 19.4331C50.1244 19.3653 50.0355 19.2819 49.9769 19.183C49.92 19.0822 49.8916 18.9631 49.8916 18.8256V18.8229C49.8916 18.6634 49.9384 18.5205 50.0318 18.394C50.1271 18.2676 50.2554 18.1686 50.4167 18.0971C50.5798 18.0257 50.7603 17.9899 50.9582 17.9899C51.1561 17.9899 51.333 18.0211 51.4888 18.0834C51.6445 18.1457 51.7701 18.2346 51.8654 18.35C51.9625 18.4655 52.023 18.6011 52.0468 18.7569H51.6894C51.6583 18.6194 51.5776 18.5086 51.4475 18.4243C51.3174 18.3381 51.1534 18.2951 50.9555 18.2951C50.8272 18.2951 50.7099 18.3171 50.6036 18.361C50.4992 18.405 50.4158 18.4655 50.3535 18.5425C50.2912 18.6194 50.26 18.7074 50.26 18.8064V18.8119C50.26 18.8925 50.2802 18.9631 50.3205 19.0235C50.3626 19.0822 50.4258 19.1335 50.5101 19.1775C50.5963 19.2196 50.7053 19.2563 50.8373 19.2874L51.2441 19.3864C51.53 19.4542 51.7435 19.5504 51.8846 19.675C52.0257 19.7978 52.0963 19.9655 52.0963 20.1781V20.1836C52.0963 20.354 52.045 20.5043 51.9423 20.6344C51.8415 20.7645 51.705 20.8662 51.5327 20.9395C51.3623 21.0128 51.169 21.0495 50.9527 21.0495ZM53.6824 21.0495C53.4918 21.0495 53.3223 21.0147 53.1739 20.945C53.0254 20.8735 52.9081 20.7728 52.822 20.6426C52.7359 20.5125 52.6928 20.3595 52.6928 20.1836V20.1781C52.6928 20.0076 52.734 19.861 52.8165 19.7382C52.899 19.6136 53.0199 19.5165 53.1793 19.4469C53.3388 19.3754 53.5321 19.3323 53.7594 19.3177L54.8644 19.2462V19.5403L53.8089 19.6118C53.556 19.6283 53.3681 19.6842 53.2453 19.7795C53.1244 19.8729 53.0639 20.004 53.0639 20.1726V20.1781C53.0639 20.3485 53.128 20.4841 53.2563 20.5849C53.3846 20.6839 53.5495 20.7334 53.7511 20.7334C53.9289 20.7334 54.0874 20.6967 54.2267 20.6234C54.3678 20.5483 54.4796 20.4475 54.5621 20.321C54.6445 20.1946 54.6858 20.0535 54.6858 19.8977V18.9795C54.6858 18.7615 54.6216 18.5956 54.4933 18.482C54.3651 18.3684 54.1809 18.3116 53.9408 18.3116C53.7392 18.3116 53.5715 18.351 53.4377 18.4298C53.304 18.5086 53.2169 18.6222 53.1766 18.7706L53.1739 18.7761H52.811L52.8137 18.7651C52.8394 18.6057 52.9035 18.4682 53.0062 18.3528C53.1088 18.2373 53.2407 18.1485 53.402 18.0861C53.5633 18.022 53.7465 17.9899 53.9518 17.9899C54.1845 17.9899 54.3825 18.0293 54.5456 18.1081C54.7087 18.1851 54.8324 18.2969 54.9167 18.4435C55.0028 18.5901 55.0459 18.7679 55.0459 18.9768V21H54.6858V20.4887H54.65C54.5914 20.606 54.5144 20.7068 54.4191 20.7911C54.3238 20.8735 54.2139 20.9377 54.0892 20.9835C53.9646 21.0275 53.829 21.0495 53.6824 21.0495ZM56.9564 21.0495C56.7419 21.0495 56.5514 21.0174 56.3846 20.9533C56.2178 20.8873 56.084 20.7957 55.9832 20.6784C55.8825 20.5593 55.822 20.4191 55.8018 20.2578H56.1729C56.2132 20.4062 56.3021 20.5244 56.4396 20.6124C56.577 20.7004 56.7529 20.7444 56.9674 20.7444C57.1121 20.7444 57.2413 20.7214 57.355 20.6756C57.4704 20.6298 57.5611 20.5666 57.6271 20.486C57.6949 20.4053 57.7288 20.3137 57.7288 20.2111V20.2056C57.7288 20.0773 57.6802 19.9728 57.5831 19.8922C57.486 19.8116 57.3293 19.7456 57.1131 19.6943L56.7035 19.5981C56.5202 19.5541 56.3681 19.4991 56.2471 19.4331C56.128 19.3653 56.0391 19.2819 55.9805 19.183C55.9237 19.0822 55.8953 18.9631 55.8953 18.8256V18.8229C55.8953 18.6634 55.942 18.5205 56.0355 18.394C56.1308 18.2676 56.2591 18.1686 56.4203 18.0971C56.5834 18.0257 56.7639 17.9899 56.9619 17.9899C57.1598 17.9899 57.3366 18.0211 57.4924 18.0834C57.6482 18.1457 57.7737 18.2346 57.869 18.35C57.9661 18.4655 58.0266 18.6011 58.0504 18.7569H57.6931C57.6619 18.6194 57.5813 18.5086 57.4512 18.4243C57.3211 18.3381 57.157 18.2951 56.9591 18.2951C56.8308 18.2951 56.7135 18.3171 56.6073 18.361C56.5028 18.405 56.4194 18.4655 56.3571 18.5425C56.2948 18.6194 56.2636 18.7074 56.2636 18.8064V18.8119C56.2636 18.8925 56.2838 18.9631 56.3241 19.0235C56.3663 19.0822 56.4295 19.1335 56.5138 19.1775C56.5999 19.2196 56.709 19.2563 56.8409 19.2874L57.2478 19.3864C57.5336 19.4542 57.7471 19.5504 57.8882 19.675C58.0294 19.7978 58.0999 19.9655 58.0999 20.1781V20.1836C58.0999 20.354 58.0486 20.5043 57.946 20.6344C57.8452 20.7645 57.7087 20.8662 57.5364 20.9395C57.366 21.0128 57.1726 21.0495 56.9564 21.0495Z" fill="#1D4ED8"/>
</svg>
