<svg width="28" height="25" viewBox="0 0 28 25" fill="none" xmlns="http://www.w3.org/2000/svg">
<path d="M2.82052 24.6667C2.20685 24.6667 1.69446 24.4611 1.28335 24.05C0.872243 23.6389 0.666687 23.1265 0.666687 22.5129V8.15385C0.666687 7.54019 0.872243 7.0278 1.28335 6.61669C1.69446 6.20558 2.20685 6.00002 2.82052 6.00002H6.76412L9.23079 3.33335H16.1539V4.66669H9.80772L7.34875 7.33335H2.82052C2.58121 7.33335 2.38463 7.41027 2.23079 7.56412C2.07694 7.71796 2.00002 7.91454 2.00002 8.15385V22.5129C2.00002 22.7522 2.07694 22.9487 2.23079 23.1026C2.38463 23.2564 2.58121 23.3334 2.82052 23.3334H22.5129C22.7522 23.3334 22.9487 23.2564 23.1026 23.1026C23.2564 22.9487 23.3334 22.7522 23.3334 22.5129V11.8462H24.6667V22.5129C24.6667 23.1265 24.4611 23.6389 24.05 24.05C23.6389 24.4611 23.1265 24.6667 22.5129 24.6667H2.82052ZM23.3334 7.33335V4.66669H20.6667V3.33335H23.3334V0.666687H24.6667V3.33335H27.3334V4.66669H24.6667V7.33335H23.3334ZM12.6667 20.3077C14.0598 20.3077 15.2372 19.827 16.1988 18.8654C17.1603 17.9039 17.6411 16.7265 17.6411 15.3334C17.6411 13.9402 17.1603 12.7628 16.1988 11.8013C15.2372 10.8398 14.0598 10.359 12.6667 10.359C11.2735 10.359 10.0962 10.8398 9.13462 11.8013C8.17309 12.7628 7.69232 13.9402 7.69232 15.3334C7.69232 16.7265 8.17309 17.9039 9.13462 18.8654C10.0962 19.827 11.2735 20.3077 12.6667 20.3077ZM12.6667 18.9744C11.6308 18.9744 10.765 18.6265 10.0693 17.9308C9.37352 17.2351 9.02565 16.3692 9.02565 15.3334C9.02565 14.2975 9.37352 13.4317 10.0693 12.7359C10.765 12.0402 11.6308 11.6923 12.6667 11.6923C13.7026 11.6923 14.5684 12.0402 15.2641 12.7359C15.9599 13.4317 16.3077 14.2975 16.3077 15.3334C16.3077 16.3692 15.9599 17.2351 15.2641 17.9308C14.5684 18.6265 13.7026 18.9744 12.6667 18.9744Z" fill="#1D4ED8"/>
</svg>
