<svg width="22" height="25" viewBox="0 0 22 25" fill="none" xmlns="http://www.w3.org/2000/svg">
<path d="M2.48718 24.6667C1.8906 24.6667 1.38248 24.4569 0.96281 24.0372C0.543166 23.6176 0.333344 23.1094 0.333344 22.5129V5.48719C0.333344 4.89061 0.543166 4.38249 0.96281 3.96282C1.38248 3.54317 1.8906 3.33335 2.48718 3.33335H8.75384C8.63249 2.653 8.79531 2.03847 9.24231 1.48975C9.68933 0.941043 10.2752 0.666687 11 0.666687C11.7419 0.666687 12.3363 0.941043 12.7833 1.48975C13.2304 2.03847 13.3846 2.653 13.2462 3.33335H19.5128C20.1094 3.33335 20.6175 3.54317 21.0372 3.96282C21.4569 4.38249 21.6667 4.89061 21.6667 5.48719V22.5129C21.6667 23.1094 21.4569 23.6176 21.0372 24.0372C20.6175 24.4569 20.1094 24.6667 19.5128 24.6667H2.48718ZM2.48718 23.3334H19.5128C19.718 23.3334 19.906 23.2479 20.0769 23.077C20.2479 22.906 20.3333 22.718 20.3333 22.5129V5.48719C20.3333 5.28208 20.2479 5.09404 20.0769 4.92309C19.906 4.75215 19.718 4.66669 19.5128 4.66669H2.48718C2.28207 4.66669 2.09403 4.75215 1.92308 4.92309C1.75214 5.09404 1.66668 5.28208 1.66668 5.48719V22.5129C1.66668 22.718 1.75214 22.906 1.92308 23.077C2.09403 23.2479 2.28207 23.3334 2.48718 23.3334ZM5.00001 19.6923H13V18.359H5.00001V19.6923ZM5.00001 14.6667H17V13.3334H5.00001V14.6667ZM5.00001 9.64105H17V8.30772H5.00001V9.64105ZM11 3.92309C11.2889 3.92309 11.5278 3.82864 11.7167 3.63975C11.9056 3.45087 12 3.21198 12 2.92309C12 2.6342 11.9056 2.39531 11.7167 2.20642C11.5278 2.01753 11.2889 1.92309 11 1.92309C10.7111 1.92309 10.4722 2.01753 10.2833 2.20642C10.0945 2.39531 10 2.6342 10 2.92309C10 3.21198 10.0945 3.45087 10.2833 3.63975C10.4722 3.82864 10.7111 3.92309 11 3.92309Z" fill="#1D4ED8"/>
</svg>
