<svg width="24" height="15" viewBox="0 0 24 15" fill="none" xmlns="http://www.w3.org/2000/svg">
<path d="M0 15V8.33331C0 7.93845 0.113678 7.51793 0.341033 7.07178C0.568367 6.62562 0.899133 6.29058 1.33333 6.06665V2.99998C1.33333 2.24785 1.58974 1.61537 2.10257 1.10255C2.61539 0.589725 3.24787 0.333313 4 0.333313H10C10.4598 0.333313 10.8521 0.427757 11.1769 0.616646C11.5017 0.805535 11.7761 1.06665 12 1.39998C12.2239 1.06665 12.4983 0.805535 12.8231 0.616646C13.1479 0.427757 13.5402 0.333313 14 0.333313H20C20.7521 0.333313 21.3846 0.589725 21.8974 1.10255C22.4103 1.61537 22.6667 2.24785 22.6667 2.99998V6.06665C23.1009 6.29058 23.4316 6.62562 23.659 7.07178C23.8863 7.51793 24 7.93845 24 8.33331V15H22.6667V12.3333H1.33333V15H0ZM12.6667 5.66665H21.3333V2.99998C21.3333 2.6222 21.2056 2.30554 20.95 2.04998C20.6944 1.79442 20.3778 1.66665 20 1.66665H14C13.6222 1.66665 13.3056 1.79442 13.05 2.04998C12.7944 2.30554 12.6667 2.6222 12.6667 2.99998V5.66665ZM2.66667 5.66665H11.3333V2.99998C11.3333 2.6222 11.2056 2.30554 10.95 2.04998C10.6944 1.79442 10.3778 1.66665 10 1.66665H4C3.62222 1.66665 3.30556 1.79442 3.05 2.04998C2.79444 2.30554 2.66667 2.6222 2.66667 2.99998V5.66665ZM1.33333 11H22.6667V8.33331C22.6667 7.95554 22.5389 7.63887 22.2833 7.38331C22.0278 7.12776 21.7111 6.99998 21.3333 6.99998H2.66667C2.28889 6.99998 1.97222 7.12776 1.71667 7.38331C1.46111 7.63887 1.33333 7.95554 1.33333 8.33331V11Z" fill="#1D4ED8"/>
</svg>
