<svg width="24" height="20" viewBox="0 0 24 20" fill="none" xmlns="http://www.w3.org/2000/svg">
<path d="M2.66667 19.3334C1.91453 19.3334 1.28206 19.0769 0.769233 18.5641C0.256411 18.0513 0 17.4188 0 16.6667C0 15.9146 0.256411 15.2821 0.769233 14.7693C1.28206 14.2564 1.91453 14 2.66667 14H21.3333C22.0855 14 22.7179 14.2564 23.2308 14.7693C23.7436 15.2821 24 15.9146 24 16.6667C24 17.4188 23.7436 18.0513 23.2308 18.5641C22.7179 19.0769 22.0855 19.3334 21.3333 19.3334H2.66667ZM2.66667 18H21.3333C21.7111 18 22.0278 17.8722 22.2833 17.6167C22.5389 17.3611 22.6667 17.0445 22.6667 16.6667C22.6667 16.2889 22.5389 15.9722 22.2833 15.7167C22.0278 15.4611 21.7111 15.3334 21.3333 15.3334H2.66667C2.28889 15.3334 1.97222 15.4611 1.71667 15.7167C1.46111 15.9722 1.33333 16.2889 1.33333 16.6667C1.33333 17.0445 1.46111 17.3611 1.71667 17.6167C1.97222 17.8722 2.28889 18 2.66667 18ZM11.6815 11.3334C11.3793 11.3334 11.1261 11.2311 10.9218 11.0267C10.7175 10.8222 10.6154 10.5689 10.6154 10.2666V1.73285C10.6154 1.43061 10.7176 1.17735 10.9221 0.973088C11.1265 0.768821 11.3799 0.666687 11.6821 0.666687H20.2159C20.5181 0.666687 20.7714 0.76891 20.9756 0.973354C21.1799 1.17782 21.2821 1.43116 21.2821 1.73339V10.2672C21.2821 10.5694 21.1798 10.8227 20.9754 11.027C20.7709 11.2312 20.5176 11.3334 20.2153 11.3334H11.6815ZM11.9487 10H19.9487V2.00002H11.9487V10ZM0 9.31795V8.00769H7.92563V9.31795H0ZM13.282 5.33335H18.6154V4.00769H13.282V5.33335ZM2.66667 5.33335H7.92563V4.00769H2.66667V5.33335Z" fill="#1D4ED8"/>
</svg>
