<svg width="27" height="20" viewBox="0 0 27 20" fill="none" xmlns="http://www.w3.org/2000/svg">
<path d="M17.2547 19.3333C14.6461 19.3333 12.4365 18.4281 10.626 16.6176C8.81551 14.8071 7.91026 12.5976 7.91026 9.98889C7.91026 7.39971 8.81551 5.19871 10.626 3.38589C12.4365 1.57307 14.6461 0.666656 17.2547 0.666656C19.8439 0.666656 22.0449 1.57307 23.8577 3.38589C25.6706 5.19871 26.577 7.39971 26.577 9.98889C26.577 12.5976 25.6706 14.8071 23.8577 16.6176C22.0449 18.4281 19.8439 19.3333 17.2547 19.3333ZM17.2436 18C19.4659 18 21.3547 17.2222 22.9103 15.6667C24.4659 14.1111 25.2436 12.2222 25.2436 9.99999C25.2436 7.77777 24.4659 5.88888 22.9103 4.33332C21.3547 2.77777 19.4659 1.99999 17.2436 1.99999C15.0214 1.99999 13.1325 2.77777 11.577 4.33332C10.0214 5.88888 9.24363 7.77777 9.24363 9.99999C9.24363 12.2222 10.0214 14.1111 11.577 15.6667C13.1325 17.2222 15.0214 18 17.2436 18ZM20.5334 14.2744L21.4847 13.3231L17.9103 9.74869V5.07692H16.577V10.2846L20.5334 14.2744ZM1.75643 5.33332V3.99999H6.57693V5.33332H1.75643ZM0.423096 10.6667V9.33332H6.57693V10.6667H0.423096ZM1.75643 16V14.6667H6.57693V16H1.75643Z" fill="#1D4ED8"/>
</svg>
