<svg width="24" height="28" viewBox="0 0 24 28" fill="none" xmlns="http://www.w3.org/2000/svg">
<path d="M11.9821 4.09485C14.3253 4.09485 16.5359 4.60041 18.6139 5.61152C20.6918 6.62263 22.4222 8.0752 23.8052 9.96922C23.9265 10.1179 23.9637 10.2572 23.9167 10.3872C23.8697 10.5171 23.7881 10.6205 23.6718 10.6974C23.5556 10.7744 23.4303 10.8082 23.2961 10.799C23.1618 10.7898 23.0443 10.7115 22.9436 10.5641C21.6872 8.79657 20.0897 7.44743 18.151 6.51665C16.2124 5.58587 14.1561 5.12049 11.9821 5.12049C9.82653 5.12049 7.79575 5.59442 5.88975 6.54228C3.98377 7.49015 2.40002 8.83075 1.13849 10.5641C1.02224 10.7299 0.89233 10.8154 0.748752 10.8205C0.605152 10.8256 0.47523 10.7812 0.358985 10.6872C0.263274 10.6102 0.205152 10.5141 0.184619 10.3987C0.164108 10.2833 0.194885 10.1624 0.276952 10.0359C1.67182 8.18118 3.39177 6.72733 5.43682 5.67435C7.48186 4.62135 9.66362 4.09485 11.9821 4.09485ZM11.9833 7.22819C14.9483 7.22819 17.4957 8.2159 19.6257 10.1913C21.7556 12.1667 22.8205 14.6141 22.8205 17.5333C22.8205 18.6079 22.441 19.5052 21.682 20.2252C20.9229 20.9451 19.9982 21.3051 18.9077 21.3051C17.8257 21.3051 16.8919 20.9451 16.1064 20.2252C15.321 19.5052 14.9282 18.6079 14.9282 17.5333C14.9282 16.7658 14.6434 16.115 14.0737 15.5808C13.5041 15.0466 12.8239 14.7795 12.0334 14.7795C11.2288 14.7795 10.5366 15.0443 9.95685 15.5739C9.37707 16.1034 9.08719 16.7566 9.08719 17.5333C9.08719 19.74 9.74318 21.5827 11.0552 23.0614C12.3671 24.5401 14.0342 25.5684 16.0564 26.1462C16.2145 26.1968 16.3245 26.2812 16.3865 26.3994C16.4485 26.5175 16.4573 26.6441 16.4129 26.7792C16.3684 26.8973 16.2966 27.0034 16.1975 27.0974C16.0983 27.1914 15.9573 27.2162 15.7744 27.1718C13.5317 26.594 11.6855 25.4564 10.2359 23.759C8.78634 22.0616 8.06155 19.9864 8.06155 17.5333C8.06155 16.4564 8.45301 15.5572 9.23592 14.8359C10.0188 14.1145 10.9519 13.7538 12.0351 13.7538C13.1183 13.7538 14.0423 14.1145 14.8069 14.8359C15.5715 15.5572 15.9539 16.4564 15.9539 17.5333C15.9539 18.3101 16.2461 18.9632 16.8307 19.4928C17.4152 20.0224 18.1049 20.2872 18.8999 20.2872C19.6948 20.2872 20.3761 20.0201 20.9436 19.4859C21.5111 18.9517 21.7949 18.3008 21.7949 17.5333C21.7949 14.9121 20.8308 12.709 18.9025 10.9238C16.9743 9.13871 14.6717 8.24615 11.9948 8.24615C9.31795 8.24615 7.02225 9.14124 5.10772 10.9314C3.19319 12.7216 2.23592 14.9197 2.23592 17.5256C2.23592 18.0675 2.29874 18.7449 2.42439 19.5577C2.55003 20.3705 2.79319 21.3103 3.15385 22.3769C3.20343 22.5256 3.20215 22.6564 3.15002 22.7692C3.09789 22.882 3.00002 22.9718 2.85642 23.0385C2.71284 23.1051 2.57909 23.1075 2.45515 23.0457C2.33122 22.9839 2.24446 22.8823 2.19489 22.741C1.84446 21.8231 1.59275 20.9448 1.43975 20.1064C1.28677 19.2679 1.21029 18.4103 1.21029 17.5333C1.21029 14.6141 2.27001 12.1667 4.38945 10.1913C6.5089 8.2159 9.04016 7.22819 11.9833 7.22819ZM12.0334 0.828186C13.4331 0.828186 14.8 1.00041 16.1341 1.34485C17.4682 1.6893 18.7585 2.18374 20.0052 2.82819C20.1881 2.92221 20.2919 3.03417 20.3167 3.16408C20.3415 3.294 20.3291 3.41964 20.2795 3.54102C20.2299 3.66238 20.1402 3.75041 20.0103 3.80512C19.8804 3.85981 19.747 3.8487 19.6103 3.77179C18.4496 3.1205 17.2289 2.63802 15.9481 2.32435C14.6674 2.01066 13.3583 1.85382 12.0209 1.85382C10.7061 1.85382 9.41798 2.02092 8.15642 2.35512C6.89489 2.6893 5.67181 3.16152 4.48719 3.77179C4.3949 3.83161 4.28123 3.84229 4.14619 3.80382C4.01114 3.76537 3.91626 3.6829 3.86155 3.55639C3.80686 3.4299 3.78892 3.30725 3.80772 3.18845C3.82652 3.06965 3.89916 2.97179 4.02565 2.89485C5.25301 2.2111 6.54446 1.69572 7.90002 1.34872C9.25558 1.0017 10.6334 0.828186 12.0334 0.828186ZM12.0346 10.4872C14.0662 10.4872 15.8052 11.1645 17.2513 12.5192C18.6974 13.8739 19.4205 15.5453 19.4205 17.5333C19.4205 17.6872 19.3735 17.8111 19.2795 17.9051C19.1855 17.9991 19.0616 18.0462 18.9077 18.0462C18.7812 18.0462 18.6641 17.9991 18.5564 17.9051C18.4487 17.8111 18.3949 17.6872 18.3949 17.5333C18.3949 15.8325 17.7656 14.4038 16.507 13.2474C15.2484 12.091 13.7574 11.5128 12.034 11.5128C10.3105 11.5128 8.82182 12.091 7.56795 13.2474C6.31411 14.4038 5.68719 15.8318 5.68719 17.5314C5.68719 19.3668 6.00685 20.9166 6.64619 22.1808C7.2855 23.4449 8.20515 24.7257 9.40515 26.0233C9.53849 26.1599 9.59233 26.2957 9.56669 26.4308C9.54104 26.5658 9.4872 26.6744 9.40515 26.7564C9.306 26.8555 9.1889 26.9094 9.05385 26.918C8.91881 26.9265 8.79318 26.8726 8.67695 26.7564C7.41711 25.4128 6.43292 24.0201 5.72439 22.5782C5.01583 21.1363 4.66155 19.4544 4.66155 17.5325C4.66155 15.545 5.38248 13.8739 6.82432 12.5192C8.26614 11.1645 10.0029 10.4872 12.0346 10.4872ZM11.9691 17.0205C12.1213 17.0205 12.2457 17.0718 12.3423 17.1744C12.4389 17.2769 12.4872 17.3966 12.4872 17.5333C12.4872 19.2525 13.1 20.6622 14.3257 21.7624C15.5513 22.8627 16.9898 23.4128 18.6411 23.4128C18.8599 23.4128 19.0915 23.4017 19.3359 23.3795C19.5804 23.3573 19.8274 23.3239 20.077 23.2795C20.2086 23.2521 20.321 23.2714 20.4141 23.3372C20.5073 23.403 20.5761 23.512 20.6205 23.6643C20.665 23.7996 20.6402 23.918 20.5462 24.0195C20.4522 24.121 20.3334 24.194 20.1898 24.2385C19.9436 24.2983 19.6791 24.3466 19.3962 24.3833C19.1133 24.4201 18.8616 24.4385 18.6411 24.4385C16.7145 24.4385 15.0363 23.7839 13.6064 22.4749C12.1765 21.1659 11.4616 19.5187 11.4616 17.5333C11.4616 17.3966 11.5081 17.2769 11.6011 17.1744C11.6942 17.0718 11.8168 17.0205 11.9691 17.0205Z" fill="#1D4ED8"/>
</svg>
