<svg width="19" height="24" viewBox="0 0 19 24" fill="none" xmlns="http://www.w3.org/2000/svg">
<path d="M6.74104 15.4667L9.5 13.3333L12.1923 15.4154L11.1513 12.0615L14.0128 9.84617H10.6077L9.5 6.441L8.3923 9.84617H4.98717L7.78204 12.0615L6.74104 15.4667ZM9.5 23.9487C6.82136 23.1539 4.59615 21.5312 2.82437 19.0808C1.05257 16.6303 0.166672 13.8701 0.166672 10.8V3.58974L9.5 0.10257L18.8333 3.58974V10.8C18.8333 13.8701 17.9474 16.6303 16.1756 19.0808C14.4039 21.5312 12.1786 23.1539 9.5 23.9487ZM9.5 22.5333C11.8111 21.8 13.7222 20.3333 15.2333 18.1333C16.7444 15.9333 17.5 13.4889 17.5 10.8V4.5L9.5 1.52563L1.50001 4.5V10.8C1.50001 13.4889 2.25556 15.9333 3.76667 18.1333C5.27778 20.3333 7.18889 21.8 9.5 22.5333Z" fill="#1D4ED8"/>
</svg>
