<svg width="22" height="24" viewBox="0 0 22 24" fill="none" xmlns="http://www.w3.org/2000/svg">
<path d="M10.3333 22.2846V12.382L1.66667 7.36407V16.8051C1.66667 16.9419 1.70085 17.0701 1.76923 17.1897C1.83761 17.3094 1.94018 17.4119 2.07693 17.4974L10.3333 22.2846ZM11.6667 22.2846L19.9231 17.4974C20.0598 17.4119 20.1624 17.3094 20.2308 17.1897C20.2991 17.0701 20.3333 16.9419 20.3333 16.8051V7.36407L11.6667 12.382V22.2846ZM9.92307 23.582L1.41023 18.6769C1.0735 18.4838 0.809832 18.2213 0.619232 17.8897C0.428632 17.5581 0.333332 17.1991 0.333332 16.8128V7.18714C0.333332 6.80083 0.428632 6.44186 0.619232 6.11024C0.809832 5.7786 1.0735 5.5162 1.41023 5.32304L9.92307 0.417908C10.2598 0.224752 10.6188 0.128174 11 0.128174C11.3812 0.128174 11.7402 0.224752 12.0769 0.417908L20.5898 5.32304C20.9265 5.5162 21.1902 5.7786 21.3808 6.11024C21.5714 6.44186 21.6667 6.80083 21.6667 7.18714V16.8128C21.6667 17.1991 21.5714 17.5581 21.3808 17.8897C21.1902 18.2213 20.9265 18.4838 20.5898 18.6769L12.0769 23.582C11.7402 23.7752 11.3812 23.8718 11 23.8718C10.6188 23.8718 10.2598 23.7752 9.92307 23.582ZM15.9487 8.36664L19.5667 6.28457L11.4103 1.56407C11.2735 1.47861 11.1368 1.43587 11 1.43587C10.8632 1.43587 10.7265 1.47861 10.5897 1.56407L7.4 3.39741L15.9487 8.36664ZM11 11.2359L14.6 9.14614L6.03333 4.19484L2.43333 6.28457L11 11.2359Z" fill="#1D4ED8"/>
</svg>
