<svg width="29" height="27" viewBox="0 0 29 27" fill="none" xmlns="http://www.w3.org/2000/svg">
<path d="M1.8205 20.2846L0.730766 19.4872L6.57693 10.1282L10.5769 14.7949L15.859 6.23076L18.5949 10.3564C18.3402 10.3957 18.1047 10.4397 17.8885 10.4885C17.6722 10.5372 17.453 10.5991 17.2308 10.6744L15.9077 8.70256L10.7897 17.0385L6.7564 12.3385L1.8205 20.2846ZM27.2667 26.718L22.6897 22.1923C22.2966 22.4863 21.8662 22.7111 21.3987 22.8667C20.9312 23.0222 20.4427 23.1 19.9333 23.1C18.6256 23.1 17.5209 22.6491 16.6192 21.7474C15.7175 20.8457 15.2667 19.741 15.2667 18.4333C15.2667 17.1256 15.7175 16.0209 16.6192 15.1192C17.5209 14.2175 18.6256 13.7667 19.9333 13.7667C21.241 13.7667 22.3457 14.2175 23.2474 15.1192C24.1491 16.0209 24.6 17.1256 24.6 18.4333C24.6 18.9598 24.518 19.4611 24.3539 19.9372C24.1898 20.4132 23.9521 20.8504 23.641 21.2487L28.218 25.7667L27.2667 26.718ZM19.9333 21.7667C20.8667 21.7667 21.6556 21.4444 22.3 20.8C22.9444 20.1555 23.2667 19.3667 23.2667 18.4333C23.2667 17.5 22.9444 16.7111 22.3 16.0667C21.6556 15.4222 20.8667 15.1 19.9333 15.1C19 15.1 18.2111 15.4222 17.5667 16.0667C16.9222 16.7111 16.6 17.5 16.6 18.4333C16.6 19.3667 16.9222 20.1555 17.5667 20.8C18.2111 21.4444 19 21.7667 19.9333 21.7667ZM22.3872 10.6385C22.1701 10.5632 21.9534 10.5 21.7372 10.4487C21.5209 10.3974 21.2966 10.3607 21.0641 10.3385L27.1795 0.615356L28.2692 1.41282L22.3872 10.6385Z" fill="#1D4ED8"/>
</svg>
