<svg width="20" height="20" viewBox="0 0 20 20" fill="none" xmlns="http://www.w3.org/2000/svg">
<path d="M3.9282 16.0718L0.430767 14.1744L1.21537 13.3897L4.31793 13.8564L9.85127 8.32307L0.0410004 3.01537L1.0359 1.99487L13.1026 5.05641L17.0282 1.1205C17.2863 0.862393 17.5919 0.733337 17.9449 0.733337C18.2979 0.733337 18.6034 0.862393 18.8616 1.1205C19.1197 1.37861 19.2487 1.68845 19.2487 2.05C19.2487 2.41154 19.1197 2.72136 18.8616 2.97947L14.9692 6.92307L18.0051 18.9641L17.0103 19.9846L11.6769 10.1744L6.19487 15.6564L6.6359 18.7846L5.82563 19.5949L3.9282 16.0718Z" fill="#1D4ED8"/>
</svg>
